<?xml version="1.0" standalone="no"?>
<!DOCTYPE svg PUBLIC "-//W3C//DTD SVG 20010904//EN" "http://www.w3.org/TR/2001/REC-SVG-20010904/DTD/svg10.dtd">
<svg xmlns="http://www.w3.org/2000/svg" version="1.0" width="1920.000000pt" height="1080.000000pt" viewBox="0 0 1920.000000 1080.000000" preserveAspectRatio="xMidYMid meet">
<metadata>
Created by potrace 1.16, written by Peter Selinger 2001-2019
<meta name="Producer" content="Online-Convert"/></metadata>
<g transform="translate(0.000000,1080.000000) scale(0.100000,-0.100000)" fill="#000000" stroke="none">
<path d="M9009 8103 c-28 -7 -40 -131 -15 -152 9 -8 77 -11 222 -9 l209 3 3 68 c2 42 -2 74 -9 83 -9 11 -49 14 -203 13 -105 -1 -198 -3 -207 -6z"/>
<path d="M8066 7941 c-10 -16 -19 -119 -12 -145 l6 -26 198 2 197 3 3 73 c2 46 -2 79 -9 88 -9 11 -49 14 -195 14 -100 0 -185 -4 -188 -9z"/>
<path d="M7444 7627 c-3 -8 -4 -45 -2 -83 l3 -69 200 0 200 0 0 80 0 80 -198 3 c-160 2 -198 0 -203 -11z"/>
<path d="M8581 7626 c-7 -9 -11 -41 -9 -83 l3 -68 249 -3 c175 -2 253 1 262 9 15 12 18 75 8 128 l-6 31 -248 0 c-201 0 -250 -3 -259 -14z"/>
<path d="M10018 7630 c-203 -19 -279 -45 -688 -241 -179 -85 -190 -89 -315 -109 -156 -24 -206 -42 -239 -81 -44 -51 -48 -86 -44 -354 4 -274 9 -301 70 -398 67 -105 168 -153 343 -163 l113 -7 28 -51 c63 -116 168 -190 290 -205 78 -9 171 2 230 28 58 26 140 104 176 169 17 29 38 57 48 62 12 6 282 10 719 10 l701 0 25 -50 c76 -150 210 -227 379 -218 139 7 242 72 325 203 l40 63 173 3 c151 4 178 7 208 24 53 31 77 89 90 222 16 174 -15 288 -111 397 -62 70 -114 91 -436 172 -164 41 -321 82 -350 90 -29 8 -151 74 -280 151 -338 201 -482 259 -714 283 -114 11 -648 11 -781 0z m411 -169 c15 -10 39 -147 40 -228 l1 -42 -127 5 c-353 13 -518 26 -554 43 -46 22 -129 91 -129 107 0 32 212 96 385 117 65 8 371 6 384 -2z m378 -2 c105 -14 182 -34 278 -71 100 -39 398 -215 389 -230 -5 -8 -66 -9 -198 -5 -279 9 -599 28 -616 36 -16 8 -37 139 -39 234 l-1 47 54 0 c30 0 90 -5 133 -11z m-1280 -231 c21 -18 60 -52 86 -76 68 -62 135 -90 232 -97 169 -11 1162 -61 1410 -71 177 -6 278 2 406 33 l72 17 206 -52 c113 -28 249 -61 301 -73 118 -27 167 -48 207 -87 56 -56 68 -95 68 -217 0 -60 -3 -118 -7 -127 -7 -16 -23 -18 -141 -18 l-133 0 -18 59 c-63 212 -280 341 -481 287 -72 -19 -112 -42 -173 -100 -64 -61 -96 -112 -115 -186 l-14 -55 -74 -8 c-41 -4 -355 -6 -698 -5 l-623 3 -20 65 c-24 76 -71 154 -119 194 -19 16 -63 43 -99 60 -59 28 -74 31 -165 31 -93 0 -105 -2 -165 -32 -121 -60 -173 -121 -216 -253 l-21 -65 -71 -3 c-96 -4 -142 10 -190 58 -65 65 -72 100 -72 352 0 253 -14 227 130 247 119 17 170 33 301 95 63 30 124 55 136 55 12 1 39 -13 60 -31z m2413 -612 c114 -59 151 -217 77 -327 -80 -119 -257 -133 -352 -28 -46 52 -55 76 -55 155 0 104 49 175 146 214 60 24 119 20 184 -14z m-2240 13 c162 -37 219 -246 101 -372 -43 -47 -98 -70 -168 -71 -191 0 -293 225 -167 372 63 74 131 95 234 71z"/>
<path d="M6835 7150 c-12 -20 -7 -153 7 -161 22 -14 1312 -11 1326 3 12 12 17 124 6 152 -6 14 -74 16 -669 16 -424 0 -666 -4 -670 -10z"/>
<path d="M7140 6700 l-235 -5 -3 -73 c-2 -46 2 -79 9 -88 9 -11 57 -14 253 -14 135 0 248 4 256 10 11 7 15 28 15 81 0 58 -3 73 -19 85 -11 8 -25 13 -30 12 -6 -1 -117 -5 -246 -8z"/>
<path d="M7832 6508 c-12 -12 -17 -124 -6 -152 5 -14 30 -16 168 -16 113 0 166 4 174 12 7 7 12 40 12 78 0 38 -5 71 -12 78 -8 8 -60 12 -168 12 -108 0 -160 -4 -168 -12z"/>
<path d="M7717 6043 c-20 -2 -35 -8 -32 -13 3 -5 2 -18 -4 -27 -5 -10 -12 -39 -16 -64 -13 -85 -70 -79 741 -79 474 0 722 3 735 10 16 9 19 22 19 85 0 63 -3 76 -19 85 -19 9 -1332 12 -1424 3z"/>
<path d="M9154 5208 c-4 -7 -3 -8 4 -4 16 9 15 -7 0 -22 -18 -18 -18 -1762 1 -1762 8 0 11 -6 7 -15 -5 -13 18 -15 169 -15 116 0 176 4 181 11 3 6 6 224 5 485 -1 277 2 474 7 474 5 0 17 -9 27 -20 10 -11 22 -17 28 -13 6 3 7 1 3 -6 -8 -13 212 -243 225 -235 5 3 7 -1 4 -8 -3 -7 28 -46 70 -88 41 -41 75 -69 75 -62 0 6 5 12 11 12 5 0 7 -5 3 -11 -21 -34 27 10 132 121 66 69 140 147 166 174 26 28 44 55 41 60 -3 6 -2 8 2 3 5 -4 28 12 52 35 l43 42 0 -476 c0 -392 2 -478 14 -487 9 -8 68 -11 187 -9 l174 3 3 904 c2 717 0 906 -10 913 -7 4 -33 8 -58 8 -28 0 -40 -3 -32 -9 11 -7 10 -10 -3 -15 -23 -8 -27 -8 -20 4 3 6 2 10 -4 10 -14 0 -147 -159 -143 -171 1 -6 -1 -8 -6 -5 -5 3 -58 -50 -118 -116 -60 -67 -100 -119 -89 -114 24 9 13 -3 -17 -19 -13 -6 -22 -16 -21 -22 1 -6 -21 -35 -49 -65 -28 -29 -43 -42 -32 -28 10 14 -1 7 -24 -15 -47 -44 -49 -47 -24 -38 15 6 15 5 3 -10 -7 -9 -17 -14 -22 -11 -5 3 -8 0 -7 -8 2 -7 -2 -12 -8 -11 -18 3 -106 -95 -98 -109 4 -6 3 -8 -4 -4 -6 3 -13 2 -17 -4 -3 -5 -10 -10 -15 -10 -5 0 -63 60 -131 133 -67 72 -126 131 -131 129 -5 -1 -7 2 -3 7 7 13 -64 93 -76 85 -5 -3 -8 0 -7 8 2 7 -3 12 -10 10 -8 -1 -11 2 -8 7 3 5 -69 93 -160 195 -147 164 -189 209 -170 177 4 -5 -3 -7 -15 -4 -16 4 -17 8 -7 14 8 5 -7 9 -39 9 -29 0 -55 -5 -59 -12z"/>
<path d="M5052 5178 c-17 -17 -17 -1759 0 -1776 9 -9 124 -12 454 -12 243 0 449 3 458 6 14 5 16 31 16 180 0 165 -1 174 -21 184 -11 6 -32 11 -47 10 -15 -1 -132 -2 -260 -1 l-232 1 2 163 3 162 220 3 c193 2 222 4 233 19 18 25 17 336 -1 352 -9 7 -92 12 -233 13 l-219 3 -3 163 c-1 89 -1 163 0 164 2 1 120 5 263 8 l260 5 3 169 c2 116 -1 173 -9 182 -16 19 -868 21 -887 2z"/>
</g>
</svg>
